# xmcd
#
# Track frame offsets:
#	150
#	15301
#	27080
#	40167
#	56051
#	65847
#	77905
#	92475
#	103151
#	118013
#
# Disc length: 1703 seconds
# Revision: 0
# Processed by: cddbd v1.5.2PL0 Copyright (c) Steve Scherf et al.
# Submitted via: dBpowerAMP V12.0
#
DISCID=7c06a50a
DTITLE=Dori Freeman - Letters Never Read
DYEAR=2017
DGENRE=Americana
TTITLE0=If I Could Make You My own
TTITLE1=Just Say It Now
TTITLE2=Lovers on the Run
TTITLE3=Cold Waves
TTITLE4=Ern and Zorry’s Sneakin’ Bitin’ Dog
TTITLE5=Over There
TTITLE6=I Want to See the Bright Lights Tonight
TTITLE7=Turtle Dove
TTITLE8=That's Alright
TTITLE9=Yonder Comes a Sucker
EXTD=
EXTT0=
EXTT1=
EXTT2=
EXTT3=
EXTT4=
EXTT5=
EXTT6=
EXTT7=
EXTT8=
EXTT9=
PLAYORDER=
